<?xml version="1.0" encoding="UTF-8" standalone="no"?>
<svg xmlns:dc="http://purl.org/dc/elements/1.1/" xmlns:cc="http://creativecommons.org/ns#" xmlns:rdf="http://www.w3.org/1999/02/22-rdf-syntax-ns#" xmlns:svg="http://www.w3.org/2000/svg" xmlns="http://www.w3.org/2000/svg" height="128" width="128" version="1.1" viewBox="0 0 128 128" id="svg4">
  <metadata id="metadata10">
    <rdf:RDF>
      <cc:Work rdf:about="">
        <dc:format>image/svg+xml</dc:format>
        <dc:type rdf:resource="http://purl.org/dc/dcmitype/StillImage" />
        <dc:title></dc:title>
      </cc:Work>
    </rdf:RDF>
  </metadata>
  <defs id="defs8" />
  <path fill="#1ED760" d="M 63.999645,4.5 C 31.139596,4.5 4.5,31.139522 4.5,64.000355 4.5,96.86261 31.139596,123.5 63.999645,123.5 96.863246,123.5 123.5,96.86261 123.5,64.000355 123.5,31.141653 96.863246,4.5028421 63.998934,4.5028421 Z m 27.286153,85.81659 c -1.065754,1.747879 -3.353573,2.302085 -5.101411,1.2292 -13.969908,-8.533344 -31.556276,-10.465958 -52.267435,-5.733896 -1.995803,0.454733 -3.985211,-0.795782 -4.439933,-2.792343 -0.456853,-1.996561 0.788658,-3.986016 2.789435,-4.440749 22.665042,-5.178269 42.106533,-2.948657 57.790174,6.636256 1.747837,1.072885 2.30203,3.353653 1.22917,5.101532 z m 7.282655,-16.201274 c -1.34285,2.182717 -4.199072,2.871922 -6.380316,1.529039 C 76.194717,65.813602 51.81523,62.966549 32.898091,68.70897 c -2.453367,0.741073 -5.044571,-0.641599 -5.789178,-3.090761 -0.738923,-2.453425 0.644426,-5.039717 3.09353,-5.785763 21.608524,-6.556678 48.471929,-3.380654 66.838429,7.905954 2.181244,1.342883 2.870432,4.199173 1.527581,6.377627 z M 99.193696,57.244732 C 80.017222,45.854388 48.378528,44.807082 30.069579,50.364058 c -2.940061,0.891702 -6.049222,-0.768072 -6.940193,-3.708203 -0.89097,-2.941553 0.767343,-6.048656 3.709536,-6.94249 21.017386,-6.380469 55.956367,-5.147717 78.034538,7.959244 2.65017,1.569538 3.51699,4.985007 1.94677,7.626009 -1.5631,2.644555 -4.98773,3.516363 -7.623692,1.946114 z" id="path2" style="stroke-width:0.710511" />
</svg>
